<mxfile host="app.diagrams.net" modified="2024-02-10T17:07:04.783Z" agent="Mozilla/5.0 (Macintosh; Intel Mac OS X 10_15_7) AppleWebKit/537.36 (KHTML, like Gecko) Chrome/121.0.0.0 Safari/537.36" version="23.1.2" etag="aO0UVnu55eQcNFvVXwZ6" type="github">
  <diagram name="Page-1" id="L1fu6hUl9xcwYAZAD6hL">
    <mxGraphModel>
      <root>
        <mxCell id="0" />
        <mxCell id="1" parent="0" />
      </root>
    </mxGraphModel>
  </diagram>
</mxfile>
